<svg width="70" height="67" viewBox="0 0 70 67" fill="none" xmlns="http://www.w3.org/2000/svg">
<path d="M16.2446 52.4304C15.6686 52.3152 15.2077 52.2 14.6317 51.9696C14.0556 51.7391 13.5948 51.6239 13.1339 51.3935C12.0971 50.9327 11.1754 50.3566 10.2537 49.6654C8.41033 48.398 6.9126 46.6699 5.7605 44.5961C4.6084 42.6375 3.91714 40.3333 3.80193 38.1443C3.68672 36.9922 3.80193 35.9554 3.91714 34.8033C4.03235 34.2272 4.14756 33.7664 4.26277 33.1903C4.37798 32.6143 4.6084 32.1534 4.72361 31.5774L4.83882 33.1903C4.83882 33.7664 4.95403 34.2272 5.06924 34.8033C5.18445 35.8401 5.41487 36.877 5.64529 37.7987C6.10613 39.7573 6.79739 41.6007 7.83428 43.3288C8.87117 45.057 10.0233 46.6699 11.521 48.1676C12.2123 48.8589 13.0187 49.5501 13.8252 50.2414C14.1708 50.587 14.6317 50.9327 15.0925 51.2783L16.2446 52.4304ZM15.899 56.578C15.5534 56.8084 15.0925 56.9236 14.6317 57.0388C14.1708 57.154 13.8252 57.2692 13.3644 57.2692C12.5579 57.3844 11.6362 57.4996 10.7145 57.3844C8.98638 57.2692 7.14302 56.8084 5.64529 56.0019C4.03235 55.1954 2.64983 53.9281 1.72815 52.4304C1.26731 51.7391 0.806471 50.9327 0.46084 50.1262C0.34563 49.7806 0.23042 49.3197 0.11521 48.8589C0.11521 48.5133 0 48.1676 0 47.7068C0.34563 48.0524 0.57605 48.398 0.80647 48.6285C1.1521 48.9741 1.38252 49.3197 1.61294 49.5501C2.18899 50.1262 2.64983 50.7022 3.22588 51.1631C4.37798 52.2 5.53008 53.1217 6.9126 53.8129C8.17991 54.5042 9.67764 55.0802 11.0602 55.5411C11.7514 55.7715 12.5579 55.8867 13.3644 56.1171C13.71 56.2323 14.1708 56.2323 14.5165 56.3475C15.0925 56.4628 15.4381 56.4627 15.899 56.578ZM41.9365 0.585871C42.5125 0.701081 42.9734 0.931501 43.5494 1.16192C44.1255 1.39234 44.5863 1.62276 45.0471 1.85318C46.084 2.42923 47.0057 3.00528 47.9274 3.69654C49.7707 5.07906 51.2685 6.92242 52.3054 8.99621C53.3423 11.07 53.9183 13.3742 53.9183 15.5632C53.9183 16.7153 53.8031 17.7522 53.5727 18.9043C53.4575 19.4803 53.3423 19.9412 53.1118 20.5172C52.8814 21.0933 52.7662 21.5541 52.5358 22.0149L52.4206 20.402C52.4206 19.826 52.4206 19.3651 52.3054 18.7891L51.9597 15.6784C51.6141 13.7198 50.9228 11.7612 50.0012 9.91788C49.0795 8.07452 47.9274 6.46158 46.5449 4.96385C45.8536 4.15738 45.0471 3.46612 44.3559 2.65965C44.0102 2.31402 43.5494 1.96839 43.0886 1.62276L41.9365 0.585871ZM51.9597 0.125031C52.4206 0.240241 52.7662 0.355451 53.1118 0.585871C53.4575 0.701081 53.9183 0.931501 54.2639 1.16192C54.9552 1.62276 55.6465 2.0836 56.3377 2.65965C57.605 3.81175 58.6419 5.19427 59.218 6.80721C59.9092 8.42015 60.1396 10.1483 59.9092 11.8765C59.794 12.6829 59.5636 13.4894 59.3332 14.2959C59.218 14.6415 58.9875 15.1023 58.8723 15.448C58.6419 15.7936 58.5267 16.1392 58.1811 16.4849V15.3328V14.1807C58.1811 13.3742 58.0659 12.6829 58.0659 11.9917C57.8354 10.4939 57.605 9.11141 57.029 7.8441C56.4529 6.46158 55.7617 5.30948 54.9552 4.04217C54.4944 3.46612 54.0335 2.77486 53.5727 2.19881C53.3423 1.85318 53.1118 1.62276 52.7662 1.27713C52.5358 0.701081 52.1902 0.355451 51.9597 0.125031Z" fill="#42ADE2"/>
<path d="M9.21698 17.2913C6.91278 18.3282 6.10631 21.0933 7.1432 23.3975L21.6597 53.6977L29.7244 49.8958L15.2079 19.4803C14.171 17.1761 11.5212 16.1392 9.21698 17.2913ZM47.3515 41.3702L55.8771 37.3379L39.2868 2.77487C38.1347 0.470669 35.3697 -0.566221 32.9503 0.585879C30.6461 1.73798 29.6092 4.50302 30.7613 6.92243L47.3515 41.3702Z" fill="#FFDD67"/>
<path d="M33.0653 0.47066C32.8349 0.58587 32.6044 0.701079 32.374 0.9315C34.563 0.355449 36.8672 1.39234 37.9041 3.46612L54.4944 38.0291L55.9921 37.3379L39.4018 2.77486C38.2497 0.35545 35.4847 -0.681441 33.0653 0.47066Z" fill="#EBA352"/>
<path d="M29.7244 49.7806L38.5956 45.5178L21.6597 10.2635C20.5076 7.8441 17.5121 6.692 15.0927 7.8441C12.6733 8.9962 11.6364 11.9917 12.7885 14.4111L29.7244 49.7806Z" fill="#FFDD67"/>
<path d="M15.0926 7.95932C14.8622 8.07453 14.6318 8.18974 14.4014 8.42016C16.5904 7.84411 19.125 8.881 20.1619 11.07L30.646 33.0751L33.1806 34.5728L21.6596 10.3787C20.5075 7.84411 17.6272 6.80722 15.0926 7.95932Z" fill="#EBA352"/>
<path d="M37.2127 42.7527L46.0839 38.49L29.148 3.2357C27.9959 0.816285 25.0004 -0.335816 22.581 0.931495C20.1616 2.0836 19.1247 5.07906 20.2768 7.49847L37.2127 42.7527Z" fill="#FFDD67"/>
<path d="M22.581 0.816285C22.3506 0.931495 22.1202 1.16191 21.8898 1.27712C24.0787 0.701074 26.6134 1.73797 27.6503 3.92696L39.5169 28.8123L42.0515 30.3101L29.148 3.2357C27.9959 0.701075 25.0004 -0.335816 22.581 0.816285ZM9.21665 17.2913C8.98623 17.4065 8.75581 17.5217 8.52539 17.7522C10.5992 17.1761 12.7882 18.213 13.7098 20.2868L22.3506 38.3748L24.8852 39.8725L15.2076 19.5955C14.1707 17.1761 11.5209 16.1392 9.21665 17.2913Z" fill="#EBA352"/>
<path d="M67.7436 13.835C64.6329 11.4156 59.5637 14.0654 57.0291 22.3606C55.3009 28.1211 55.0705 29.8492 51.3838 31.5774L49.31 27.3146C49.31 27.3146 16.5904 43.0984 17.8577 45.633C17.8577 45.633 21.7748 57.8453 28.457 63.4906C38.3651 72.0161 61.5223 62.9145 62.5592 40.9094C63.1352 28.1211 71.0847 16.4849 67.7436 13.835Z" fill="#FFDD67"/>
<path d="M67.7433 13.835C67.1673 13.3742 66.476 13.1438 65.7848 13.0286C65.9 13.1438 66.1304 13.1438 66.2456 13.259C69.7019 15.9088 66.1304 22.0149 64.1718 27.545C62.5589 31.923 61.1764 36.4162 61.4068 40.7942C62.3285 59.9191 43.0884 69.0207 31.5674 65.5644C42.858 70.288 63.8262 61.3016 62.9045 41.3702C62.6741 36.9923 63.9414 32.7295 65.6696 28.1211C67.5129 22.591 71.0844 16.4849 67.7433 13.835Z" fill="#EBA352"/>
<path d="M52.4203 31.1165C45.2772 31.923 34.7931 42.1767 42.1666 53.3521C36.7517 42.0615 45.6229 34.4576 51.2682 31.8078C51.8442 31.347 52.4203 31.1165 52.4203 31.1165Z" fill="#EBA352"/>
</svg>
