<svg width="22" height="23" viewBox="0 0 22 23" fill="none" xmlns="http://www.w3.org/2000/svg">
<path d="M9.71108 22.0655L0.388443 12.5056C0.247191 12.3607 0.146902 12.2038 0.087576 12.0348C0.0291918 11.8658 0 11.6848 0 11.4916C0 11.2985 0.0291918 11.1175 0.087576 10.9485C0.146902 10.7795 0.247191 10.6226 0.388443 10.4777L9.71108 0.917827C9.97004 0.652274 10.2935 0.513222 10.6815 0.500669C11.0704 0.489081 11.4061 0.628133 11.6886 0.917827C11.9711 1.18338 12.1185 1.51508 12.1307 1.91292C12.142 2.31174 12.0064 2.65599 11.7239 2.94568L4.80257 10.0432H20.5875C20.9877 10.0432 21.3234 10.1817 21.5946 10.4589C21.8649 10.737 22 11.0812 22 11.4916C22 11.902 21.8649 12.2458 21.5946 12.523C21.3234 12.8011 20.9877 12.9401 20.5875 12.9401H4.80257L11.7239 20.0376C11.9829 20.3032 12.1185 20.6411 12.1307 21.0515C12.142 21.4619 12.0064 21.7999 11.7239 22.0655C11.465 22.3552 11.1354 22.5 10.7352 22.5C10.3349 22.5 9.99358 22.3552 9.71108 22.0655Z" fill="#1973E8"/>
</svg>
