<svg width="35" height="35" viewBox="0 0 35 35" fill="none" xmlns="http://www.w3.org/2000/svg">
<path d="M17.5 35C13.0278 35 9.13111 33.517 5.81 30.5511C2.48759 27.5865 0.583333 23.8843 0.0972221 19.4444H4.08333C4.53704 22.8148 6.03556 25.6019 8.57889 27.8056C11.1235 30.0093 14.0972 31.1111 17.5 31.1111C21.2917 31.1111 24.5078 29.7902 27.1483 27.1483C29.7902 24.5078 31.1111 21.2917 31.1111 17.5C31.1111 13.7083 29.7902 10.4916 27.1483 7.84972C24.5078 5.20917 21.2917 3.88889 17.5 3.88889C15.2639 3.88889 13.1736 4.40741 11.2292 5.44444C9.28472 6.48148 7.64815 7.90741 6.31944 9.72222H11.6667V13.6111H0V1.94444H3.88889V6.51389C5.54167 4.43981 7.55935 2.83565 9.94194 1.70139C12.3232 0.56713 14.8426 0 17.5 0C19.9306 0 22.2075 0.461481 24.3308 1.38444C26.4529 2.3087 28.3001 3.55639 29.8725 5.1275C31.4436 6.69991 32.6913 8.54713 33.6156 10.6692C34.5385 12.7925 35 15.0694 35 17.5C35 19.9306 34.5385 22.2069 33.6156 24.3289C32.6913 26.4522 31.4436 28.2994 29.8725 29.8706C28.3001 31.443 26.4529 32.6913 24.3308 33.6156C22.2075 34.5385 19.9306 35 17.5 35ZM22.9444 25.6667L15.5556 18.2778V7.77778H19.4444V16.7222L25.6667 22.9444L22.9444 25.6667Z" fill="#F8F8F8"/>
</svg>
