<svg id="visual" viewBox="0 0 900 600" width="900" height="600" xmlns="http://www.w3.org/2000/svg" xmlns:xlink="http://www.w3.org/1999/xlink" version="1.1"><rect x="0" y="0" width="900" height="600" fill="#FF0066"></rect><g transform="translate(451.0018075585831 285.1916711525045)"><path d="M99.7 -159.8C136.3 -151.5 178.1 -139.2 195.7 -111.9C213.3 -84.7 206.7 -42.3 213.3 3.8C219.9 50 239.9 100 228.2 137.5C216.5 175.1 173.3 200.1 130 200.1C86.7 200.1 43.3 175.1 2.8 170.3C-37.8 165.5 -75.7 181.1 -104 172.4C-132.2 163.7 -151 130.9 -177.4 98.1C-203.8 65.3 -237.9 32.7 -233.4 2.6C-229 -27.5 -185.9 -55 -154.6 -79.2C-123.3 -103.5 -103.6 -124.5 -79.8 -140.2C-56 -156 -28 -166.5 1.7 -169.5C31.5 -172.6 63 -168.1 99.7 -159.8" fill="#5AAFE5"></path></g></svg>