<svg width="58" height="96" viewBox="0 0 58 96" fill="none" xmlns="http://www.w3.org/2000/svg">
<path d="M5.95944 85.833C7.28188 81.9601 11.6271 81.7791 13.6343 82.1727L13.9886 83.1805L14.5789 83.889L15.0512 84.3613L15.2874 84.5974L15.9958 85.0697L16.8224 85.7782L18.4754 86.8409L19.302 87.3132L19.8923 87.5493L20.3646 87.7855L20.7189 87.9035L21.0731 88.0216L23.0804 88.2578L24.1022 88.3126H24.8515V88.7301L25.4419 88.9662L28.8661 89.1391C29.9051 89.3281 29.6926 92.524 29.5745 93.8621C18.995 96.1292 11.6271 94.4919 9.26555 93.3898C7.61249 92.4846 4.63699 89.7059 5.95944 85.833Z" fill="white" stroke="black"/>
<path d="M3.4795 38.6028C3.57396 33.0297 7.21856 33.2107 9.02905 33.9979C9.02905 31.7545 11.6267 25.2603 25.5596 25.1422C36.706 25.0478 42.6412 20.9309 44.2156 18.8842C42.6097 22.0959 48.6631 30.2195 51.8905 33.8798C53.8584 33.4075 57.6998 33.6437 57.3219 38.3667C56.9441 43.0897 52.8351 44.1918 50.8278 44.1524C49.8832 48.5212 44.5226 57.4241 30.6369 58.0853C16.7512 58.7465 11.1544 48.8361 10.0917 43.7982C7.8483 44.3885 3.38504 44.176 3.4795 38.6028Z" fill="#EEC093" stroke="black"/>
<path d="M17.2942 29.7472C14.3659 30.5973 12.8467 32.9352 12.4531 33.9979C16.0426 29.8416 20.561 30.9279 22.3715 31.9906C20.5767 29.818 18.9473 29.393 17.2942 29.7472Z" fill="#1B110A" stroke="#312B24"/>
<path d="M42.6809 29.8584C45.6092 30.7086 47.1284 33.0465 47.522 34.1092C43.9325 29.9529 39.4141 31.0392 37.6036 32.1019C39.3984 29.9293 41.0278 29.5042 42.6809 29.8584Z" fill="#1B110A" stroke="#312B24"/>
<path d="M16.8224 32.9352C15.4055 33.2186 14.5789 34.6277 14.3428 35.2967C15.6652 33.502 18.6722 33.2107 20.0104 33.2895C19.5381 33.0533 18.2393 32.6519 16.8224 32.9352Z" fill="#E5C5A2"/>
<path d="M43.6254 32.9146C45.0423 33.198 45.8688 34.607 46.105 35.2761C44.7825 33.4813 41.7755 33.1901 40.4374 33.2688C40.9097 33.0327 42.2085 32.6312 43.6254 32.9146Z" fill="#E5C5A2"/>
<path d="M14.5786 38.4847C15.7594 40.4133 19.0655 43.1605 22.8439 38.7209" stroke="#372414" stroke-width="3"/>
<path d="M45.6323 38.2486C44.4516 40.1772 41.1455 42.9244 37.367 38.4848" stroke="#372414" stroke-width="3"/>
<path d="M28.9841 41.4366V44.8608C27.8427 44.546 26.1031 44.6719 28.2757 47.6946" stroke="black" stroke-width="2"/>
<path d="M26.2681 50.6465C27.5669 52.7719 31.0147 55.7002 34.4153 50.4104" stroke="black" stroke-width="2"/>
<path d="M6.43164 37.9973C6.74651 37.2495 7.70686 36.297 9.0293 38.4696" stroke="black"/>
<path d="M6.66778 37.6582C5.72318 40.2087 8.24212 41.3186 9.61967 41.5547L9.14738 38.4848C8.01386 36.69 7.02202 37.1859 6.66778 37.6582Z" fill="#F5CBA1"/>
<path d="M54.4883 37.7611C54.1734 37.0133 53.2131 36.0609 51.8906 38.2334" stroke="black"/>
<path d="M54.2521 37.5726C55.1967 40.1231 52.6778 41.233 51.3003 41.4691L51.7725 38.3992C52.9061 36.6044 53.8979 37.1003 54.2521 37.5726Z" fill="#F5CBA1"/>
<path d="M15.4053 69.7748C15.7831 64.9573 23.3163 59.9984 26.8586 58.1485C26.2918 60.9823 27.3703 62.9264 28.1574 63.5168L29.9286 61.6908L31.6997 63.5168C33.3055 62.95 33.9431 59.7383 32.8804 58.0853C36.5408 58.0853 41.9329 65.9176 44.0976 69.7748L39.9957 71.5449C40.2129 71.9944 40.4389 72.4499 40.6734 72.9079C40.8588 73.6539 41.0936 74.5249 41.2638 75.2695C41.6837 77.1063 43.153 78.993 42.3265 80.819C40.6088 82.3369 39.0803 83.9504 37.3673 85.1878L35.9504 85.4239L34.8877 84.9516L33.2347 84.4245L30.637 82.4721L29.8105 82.2359L28.5117 82.4721L26.7405 84.0387L24.6152 85.4239L22.3717 85.1878L19.7741 83.0624L17.4126 80.5829C16.4635 79.0497 18.6742 72.5604 20.5996 67.4749L19.0656 71.4278L15.4053 69.7748Z" fill="white" stroke="black"/>
<path d="M14.3424 83.4715C12.2643 81.2989 14.1849 73.3802 15.7593 69.9561L19.1834 71.2549C17.1053 77.4893 17.6091 80.0951 18.0027 80.4099C17.8846 80.7642 21.3089 83.5347 22.7258 84.5974C24.1427 85.6601 26.6223 83.8257 27.9211 82.5269C28.9602 81.4878 29.6922 81.7791 29.9284 82.0546C29.9678 82.3301 29.8103 83.1173 28.8657 84.0619C27.9211 85.0065 28.5508 85.7936 28.9838 86.0692C29.8497 86.4234 30.8966 87.2971 28.1573 87.9584C25.4179 88.6196 22.0567 88.1552 20.7185 87.8403C19.459 87.2893 16.4206 85.6441 14.3424 83.4715Z" fill="#EEC093" stroke="black"/>
<path d="M55.1966 87.0495C54.8188 82.232 48.8205 81.4094 45.9867 81.7636L45.6325 82.8263L45.2783 83.2986L44.924 83.6528L44.5698 84.007L44.0975 84.3613L43.389 84.9516L42.3264 85.6601C43.3654 85.849 42.6019 87.3489 42.6806 87.8212C43.2474 89.5215 42.9561 89.9108 42.2083 90.3831L29.6923 92.1542L29.5742 94.3977C31.7468 94.6811 43.3103 94.4489 48.4663 94.134C50.8672 93.7798 55.5744 91.8669 55.1966 87.0495Z" fill="white" stroke="black"/>
<path d="M39.0204 87.6674L28.8657 89.2024C29.8347 89.2024 29.6549 92.7053 29.5742 93.6892L43.8847 90.3831C45.0474 90.2887 44.2077 89.8715 43.8847 89.6747L44.4519 89.4385C45.0333 89.1551 44.4499 88.9663 44.0058 88.8482C44.1996 88.8482 44.571 88.612 44.7325 88.494C45.2747 87.9654 44.5632 87.8543 43.8847 87.8712C45.7507 87.0771 44.2555 87.0377 43.5073 87.0771L43.8847 86.7195C44.9242 85.542 43.6025 85.46 42.5627 85.7749L39.0204 87.6674Z" fill="#EEC093"/>
<path d="M43.4002 87.9036C44.1269 87.8249 45.4108 87.8327 44.7325 88.494C44.571 88.612 44.1996 88.8482 44.0058 88.8482C44.4499 88.9663 45.0333 89.1551 44.4519 89.4385L43.8847 89.6747C44.2077 89.8715 45.0474 90.2887 43.8847 90.3831L29.5742 93.6892C29.6549 92.7053 29.8347 89.2024 28.8657 89.2024L39.0204 87.6674L42.5627 85.7749C43.6025 85.46 44.9242 85.542 43.8847 86.7195L43.5073 87.0771C44.2555 87.0377 45.7507 87.0771 43.8847 87.8712" stroke="black"/>
<path d="M5.01455 27.858C4.73117 30.5029 5.44749 32.8171 5.84108 33.6437C6.59674 33.1714 8.12387 33.5256 8.79298 33.7617L8.91106 33.2894L9.26528 31.9906L9.85566 30.8099L11.0364 29.393L11.5087 28.9207L13.516 27.5037L15.5233 26.5591L17.6486 25.8507L20.1282 25.3784L22.3717 25.1422L24.0247 25.0242H26.9766C36.9894 24.4574 42.72 20.7734 44.3337 19.0023C42.35 21.2694 48.5451 29.7865 51.8905 33.7617H53.7797C55.1573 33.5256 57.6054 30.9752 56.3774 22.6627C55.1494 14.3501 51.8512 11.9571 50.3555 11.7997C48.8206 9.4382 47.5217 2.23559 29.6923 1.05484C15.4288 0.110235 7.69094 11.6029 5.60494 17.4673C5.51048 19.8288 2.49562 22.0723 1 22.8988C1 26.3938 3.67636 27.6612 5.01455 27.858Z" fill="#1B110A" stroke="black"/>
<path d="M1 23.0169C2.02332 24.5912 6.0064 26.7953 13.7522 23.0169C21.4979 19.2385 30.204 20.3405 33.5888 21.3638" stroke="#342F2C" stroke-width="2"/>
<path d="M44.2155 16.995C43.5858 17.9396 41.0747 19.6163 36.0683 18.7662C29.8103 17.7035 30.7549 16.7589 23.6704 17.9396" stroke="#342F2C" stroke-width="2"/>
<path d="M44.9243 13.6889C44.0978 12.7443 41.5001 11.044 37.7217 11.7997" stroke="#342F2C" stroke-width="2"/>
<path d="M37.7217 4.36096C39.4535 4.5184 43.6255 6.06125 46.4593 10.9732" stroke="#342F2C" stroke-width="2"/>
<path d="M48.4663 14.8697C50.2768 15.4994 53.8742 18.1758 53.7797 23.8434" stroke="#342F2C" stroke-width="2"/>
<path d="M53.8977 27.9761C53.8977 29.3143 53.5671 32.2976 52.2446 33.5256" stroke="#342F2C" stroke-width="2"/>
<path d="M50.1193 11.9178C49.5289 12.272 48.0884 13.3819 47.0493 14.9877" stroke="#342F2C" stroke-width="2"/>
<path d="M14.5786 9.20206C16.271 6.95863 21.7576 2.63706 30.1646 3.29829C27.0159 3.69187 19.4906 5.42364 14.5786 9.20206Z" fill="#646464"/>
<path d="M10.2098 14.6335C10.1705 13.9644 10.4696 12.4609 11.981 11.7997C11.8235 12.5082 11.2489 14.0668 10.2098 14.6335Z" fill="#646464"/>
<path d="M45.2641 83.3457C47.3644 81.1743 45.0597 73.3783 43.4686 69.9561L39.8886 71.545C41.3206 77.9173 41.6841 79.3334 41.6841 80.1595C41.8034 80.5135 38.4621 83.6997 37.03 84.7618C35.598 85.8238 32.8533 83.6997 31.5406 82.4016C30.4905 81.3632 29.7506 81.6542 29.512 81.9296C29.4722 82.2049 29.6313 82.9917 30.586 83.9357C31.5406 84.8798 31.3455 84.8336 30.6371 85.542C29.1021 87.1951 22.4419 88.2642 25.2104 88.925C27.979 89.5859 37.3483 87.9964 38.7007 87.6818C39.9736 87.1311 43.1638 85.517 45.2641 83.3457Z" fill="#EEC093" stroke="black"/>
<path d="M9.0293 34.0611L9.26545 39.2564L9.73775 42.0903L10.092 43.8614" stroke="black"/>
<path d="M52.0088 33.9431C51.7333 37.3279 51.0878 44.1684 50.71 44.4518" stroke="black"/>
<path d="M27.9212 58.2666L26.9766 58.1485L29.9284 61.5727L32.7623 58.0305L31.9357 58.1485L30.755 58.2666H29.9284H29.4561H28.8658H28.2754H27.9212Z" fill="#E8C3A1"/>
<path d="M28.1573 63.3439C26.5515 62.0214 26.701 59.3293 26.9765 58.1485L29.9284 61.5727L32.7622 58.0305C34.0847 61.1476 32.6048 62.8716 31.6995 63.3439L29.9284 61.5727L28.1573 63.3439Z" fill="white"/>
<path d="M29.9284 61.5727L28.1573 63.3439C26.5515 62.0214 26.701 59.3293 26.9765 58.1485L29.9284 61.5727ZM29.9284 61.5727L31.6995 63.3439C32.6048 62.8716 34.0847 61.1476 32.7622 58.0305L29.9284 61.5727Z" stroke="black"/>
<path d="M29.8105 61.6908V67.2403H30.7552" stroke="#332B24" stroke-width="2"/>
</svg>
