<svg width="236" height="103" viewBox="0 0 236 103" fill="none" xmlns="http://www.w3.org/2000/svg">
<path d="M5.95919 88.5405C7.28164 84.544 11.6268 84.3572 13.6341 84.7633L13.9883 85.8033L14.5787 86.5344L15.051 87.0218L15.2872 87.2654L15.9956 87.7528L16.8221 88.4839L18.4752 89.5805L19.3017 90.0678L19.8921 90.3115L20.3644 90.5552L20.7186 90.6771L21.0728 90.7989L23.0801 91.0426L24.1019 91.0992H24.8513V91.53L25.4416 91.7737L28.8658 91.9521C29.9049 92.147 29.6924 95.445 29.5743 96.8258C18.9947 99.1652 11.6268 97.4757 9.2653 96.3385C7.61225 95.4043 4.63675 92.5369 5.95919 88.5405Z" fill="white" stroke="black"/>
<path d="M3.4795 39.8029C3.57396 34.0519 7.21856 34.2387 9.02905 35.051C9.02905 32.736 11.6267 26.0346 25.5596 25.9127C36.706 25.8153 42.6412 21.567 44.2156 19.455C42.6097 22.7692 48.6631 31.152 51.8905 34.9292C53.8584 34.4418 57.6998 34.6855 57.3219 39.5592C56.9441 44.433 52.8351 45.5702 50.8278 45.5296C49.8832 50.0378 44.5226 59.2248 30.6369 59.9072C16.7512 60.5895 11.1544 50.3627 10.0917 45.1641C7.8483 45.7733 3.38504 45.554 3.4795 39.8029Z" fill="#EEC093" stroke="black"/>
<path d="M17.2945 30.6646C14.3662 31.5419 12.847 33.9544 12.4534 35.051C16.0429 30.7621 20.5612 31.8831 22.3717 32.9797C20.577 30.7377 18.9475 30.2991 17.2945 30.6646Z" fill="#1B110A" stroke="#312B24"/>
<path d="M42.6806 30.7794C45.6089 31.6567 47.1281 34.0692 47.5217 35.1658C43.9322 30.8769 39.4139 31.9979 37.6034 33.0945C39.3981 30.8526 41.0276 30.4139 42.6806 30.7794Z" fill="#1B110A" stroke="#312B24"/>
<path d="M16.8221 33.9545C15.4052 34.2469 14.5787 35.7009 14.3425 36.3913C15.665 34.5393 18.672 34.2388 20.0102 34.32C19.5378 34.0763 18.239 33.662 16.8221 33.9545Z" fill="#E5C5A2"/>
<path d="M43.6254 33.9331C45.0423 34.2256 45.8688 35.6796 46.105 36.37C44.7825 34.518 41.7755 34.2174 40.4374 34.2987C40.9097 34.055 42.2085 33.6407 43.6254 33.9331Z" fill="#E5C5A2"/>
<path d="M14.5786 39.6811C15.7594 41.6712 19.0655 44.5061 22.8439 39.9247" stroke="#372414" stroke-width="3"/>
<path d="M45.6326 39.4374C44.4518 41.4275 41.1457 44.2624 37.3673 39.6811" stroke="#372414" stroke-width="3"/>
<path d="M28.9839 42.7272V46.2606C27.8425 45.9357 26.1029 46.0657 28.2754 49.1849" stroke="black" stroke-width="2"/>
<path d="M26.2681 52.231C27.5669 54.4242 31.0147 57.4459 34.4153 51.9873" stroke="black" stroke-width="2"/>
<path d="M6.4314 39.1781C6.74626 38.4064 7.70661 37.4235 9.02906 39.6654" stroke="black"/>
<path d="M6.66754 38.8282C5.72294 41.46 8.24188 42.6053 9.61943 42.849L9.14714 39.6811C8.01362 37.829 7.02177 38.3408 6.66754 38.8282Z" fill="#F5CBA1"/>
<path d="M54.4883 38.9344C54.1734 38.1627 53.2131 37.1798 51.8906 39.4217" stroke="black"/>
<path d="M54.2521 38.7398C55.1967 41.3717 52.6778 42.517 51.3003 42.7607L51.7725 39.5928C52.9061 37.7407 53.8979 38.2525 54.2521 38.7398Z" fill="#F5CBA1"/>
<path d="M15.4053 71.9697C15.7831 66.9985 23.3163 61.8813 26.8586 59.9724C26.2918 62.8967 27.3703 64.9028 28.1574 65.512L29.9286 63.6277L31.6997 65.512C33.3055 64.9271 33.9431 61.613 32.8804 59.9072C36.5408 59.9072 41.9329 67.9895 44.0976 71.9697L39.9957 73.7963C40.2129 74.2602 40.4389 74.7303 40.6734 75.2029C40.8588 75.9727 41.0936 76.8714 41.2638 77.6398C41.6837 79.5353 43.153 81.4822 42.3265 83.3664C40.6088 84.9328 39.0803 86.5978 37.3673 87.8747L35.9504 88.1183L34.8877 87.631L33.2347 87.087L30.637 85.0722L29.8105 84.8286L28.5117 85.0722L26.7405 86.6888L24.6152 88.1183L22.3717 87.8747L19.7741 85.6815L17.4126 83.1227C16.4635 81.5407 18.6742 74.8442 20.5996 69.5965L19.0656 73.6755L15.4053 71.9697Z" fill="white" stroke="black"/>
<path d="M14.3427 86.1036C12.2646 83.8616 14.1852 75.6902 15.7595 72.1568L19.1836 73.4971C17.1055 79.9304 17.6094 82.6194 18.003 82.9443C17.8849 83.3098 21.3091 86.1688 22.726 87.2654C24.1429 88.362 26.6225 86.4691 27.9214 85.1288C28.9604 84.0566 29.6925 84.3571 29.9286 84.6414C29.968 84.9257 29.8106 85.738 28.866 86.7128C27.9214 87.6875 28.5511 88.4998 28.984 88.7841C29.8499 89.1497 30.8969 90.0513 28.1575 90.7336C25.4182 91.4159 22.0569 90.9367 20.7188 90.6118C19.4593 90.0432 16.4208 88.3455 14.3427 86.1036Z" fill="#EEC093" stroke="black"/>
<path d="M55.1966 89.7957C54.8188 84.8245 48.8205 83.9756 45.9867 84.3412L45.6325 85.4378L45.2783 85.9251L44.924 86.2907L44.5698 86.6562L44.0975 87.0217L43.389 87.631L42.3264 88.362C43.3654 88.557 42.6019 90.1047 42.6806 90.5921C43.2474 92.3466 42.9561 92.7484 42.2083 93.2358L29.6923 95.0634L29.5742 97.3785C31.7468 97.6709 43.3103 97.4313 48.4663 97.1064C50.8672 96.7408 55.5744 94.767 55.1966 89.7957Z" fill="white" stroke="black"/>
<path d="M39.0204 90.4334L28.8657 92.0174C29.8347 92.0174 29.6549 95.6321 29.5742 96.6474L43.8847 93.2358C45.0474 93.1383 44.2077 92.7078 43.8847 92.5048L44.4519 92.261C45.0333 91.9686 44.4499 91.7737 44.0058 91.6519C44.1996 91.6519 44.571 91.4082 44.7325 91.2863C45.2747 90.7409 44.5632 90.6263 43.8847 90.6437C45.7507 89.8242 44.2555 89.7836 43.5073 89.8242L43.8847 89.4552C44.9242 88.2402 43.6025 88.1555 42.5627 88.4805L39.0204 90.4334Z" fill="#EEC093"/>
<path d="M43.4002 90.6771C44.1269 90.5959 45.4108 90.604 44.7325 91.2863C44.571 91.4082 44.1996 91.6519 44.0058 91.6519C44.4499 91.7737 45.0333 91.9686 44.4519 92.261L43.8847 92.5048C44.2077 92.7078 45.0474 93.1383 43.8847 93.2358L29.5742 96.6474C29.6549 95.6321 29.8347 92.0174 28.8657 92.0174L39.0204 90.4334L42.5627 88.4805C43.6025 88.1555 44.9242 88.2402 43.8847 89.4552L43.5073 89.8242C44.2555 89.7836 45.7507 89.8242 43.8847 90.6437" stroke="black"/>
<path d="M5.01455 28.7151C4.73117 31.4444 5.44749 33.8326 5.84108 34.6855C6.59674 34.1981 8.12387 34.5636 8.79298 34.8073L8.91106 34.32L9.26528 32.9797L9.85566 31.7612L11.0364 30.2991L11.5087 29.8117L13.516 28.3496L15.5233 27.3749L17.6486 26.6438L20.1282 26.1564L22.3717 25.9127L24.0247 25.7909H26.9766C36.9894 25.206 42.72 21.4045 44.3337 19.5769C42.35 21.9163 48.5451 30.7053 51.8905 34.8073H53.7797C55.1573 34.5636 57.6054 31.9318 56.3774 23.354C55.1494 14.7762 51.8512 12.3068 50.3555 12.1444C48.8206 9.7075 47.5217 2.27503 29.6923 1.05659C15.4288 0.0818386 7.69094 11.9413 5.60494 17.9929C5.51048 20.4298 2.49562 22.7448 1 23.5977C1 27.2043 3.67636 28.5121 5.01455 28.7151Z" fill="#1B110A" stroke="black"/>
<path d="M1 23.7195C2.02332 25.3441 6.0064 27.6185 13.7522 23.7195C21.4979 19.8205 30.204 20.9577 33.5888 22.0137" stroke="#342F2C" stroke-width="2"/>
<path d="M44.2155 17.5055C43.5858 18.4802 41.0747 20.2104 36.0683 19.3332C29.8103 18.2366 30.7549 17.2618 23.6704 18.4802" stroke="#342F2C" stroke-width="2"/>
<path d="M44.924 14.0939C44.0975 13.1191 41.4999 11.3646 37.7214 12.1444" stroke="#342F2C" stroke-width="2"/>
<path d="M37.7214 4.46823C39.4532 4.63069 43.6252 6.22278 46.459 11.2915" stroke="#342F2C" stroke-width="2"/>
<path d="M48.4663 15.3123C50.2768 15.9622 53.8742 18.7239 53.7797 24.5724" stroke="#342F2C" stroke-width="2"/>
<path d="M53.8979 28.837C53.8979 30.2179 53.5673 33.2965 52.2449 34.5637" stroke="#342F2C" stroke-width="2"/>
<path d="M50.1193 12.2662C49.5289 12.6318 48.0884 13.7771 47.0493 15.4342" stroke="#342F2C" stroke-width="2"/>
<path d="M14.5786 9.46382C16.271 7.14878 21.7576 2.6893 30.1646 3.37163C27.0159 3.77777 19.4906 5.56481 14.5786 9.46382Z" fill="#646464"/>
<path d="M10.2098 15.0686C10.1705 14.3782 10.4696 12.8267 11.981 12.1444C11.8235 12.8754 11.2489 14.4838 10.2098 15.0686Z" fill="#646464"/>
<path d="M45.2641 85.9737C47.3644 83.7331 45.0597 75.6882 43.4686 72.1568L39.8886 73.7964C41.3206 80.3721 41.6841 81.8334 41.6841 82.6858C41.8034 83.0512 38.4621 86.339 37.03 87.435C35.598 88.531 32.8533 86.339 31.5406 84.9995C30.4905 83.9279 29.7506 84.2283 29.512 84.5124C29.4722 84.7966 29.6313 85.6084 30.586 86.5826C31.5406 87.5568 31.3455 87.5091 30.6371 88.2402C29.1021 89.946 22.4419 91.0492 25.2104 91.7311C27.979 92.4131 37.3483 90.7729 38.7007 90.4482C39.9736 89.8799 43.1638 88.2144 45.2641 85.9737Z" fill="#EEC093" stroke="black"/>
<path d="M9.0293 35.1163L9.26545 40.4774L9.73775 43.4017L10.092 45.2293" stroke="black"/>
<path d="M52.0088 34.9944C51.7333 38.4873 51.0878 45.5461 50.71 45.8385" stroke="black"/>
<path d="M27.9212 60.0943L26.9766 59.9724L29.9284 63.5059L32.7623 59.8506L31.9357 59.9724L30.755 60.0943H29.9284H29.4561H28.8658H28.2754H27.9212Z" fill="#E8C3A1"/>
<path d="M28.1573 65.3336C26.5515 63.9689 26.701 61.1909 26.9765 59.9724L29.9284 63.5059L32.7622 59.8506C34.0847 63.0673 32.6048 64.8462 31.6995 65.3336L29.9284 63.5059L28.1573 65.3336Z" fill="white"/>
<path d="M29.9284 63.5059L28.1573 65.3336C26.5515 63.9689 26.701 61.1909 26.9765 59.9724L29.9284 63.5059ZM29.9284 63.5059L31.6995 65.3336C32.6048 64.8462 34.0847 63.0673 32.7622 59.8506L29.9284 63.5059Z" stroke="black"/>
<path d="M29.8103 63.6277V69.3544H30.7549" stroke="#332B24" stroke-width="2"/>
<path d="M122.615 69H116.547V52.2422H99.4336V69H93.3398V31.8789H99.4336V47.0625H116.547V31.8789H122.615V69ZM165.398 50.3887C165.398 53.2493 165.035 55.8561 164.307 58.209C163.596 60.5449 162.521 62.5592 161.082 64.252C159.643 65.9277 157.84 67.2227 155.674 68.1367C153.507 69.0508 150.968 69.5078 148.057 69.5078C145.094 69.5078 142.521 69.0508 140.338 68.1367C138.171 67.2227 136.368 65.9193 134.93 64.2266C133.508 62.5339 132.441 60.5111 131.73 58.1582C131.02 55.8053 130.664 53.1986 130.664 50.3379C130.664 46.5124 131.29 43.1777 132.543 40.334C133.812 37.4733 135.734 35.2559 138.307 33.6816C140.896 32.0905 144.163 31.2949 148.107 31.2949C151.967 31.2949 155.174 32.082 157.73 33.6562C160.286 35.2305 162.199 37.4479 163.469 40.3086C164.755 43.1523 165.398 46.5124 165.398 50.3887ZM137.062 50.3887C137.062 53.2493 137.452 55.7292 138.23 57.8281C139.009 59.9102 140.202 61.5182 141.811 62.6523C143.436 63.7695 145.518 64.3281 148.057 64.3281C150.613 64.3281 152.695 63.7695 154.303 62.6523C155.911 61.5182 157.096 59.9102 157.857 57.8281C158.619 55.7292 159 53.2493 159 50.3887C159 46.0384 158.128 42.6361 156.385 40.1816C154.658 37.7103 151.899 36.4746 148.107 36.4746C145.568 36.4746 143.478 37.0332 141.836 38.1504C140.211 39.2676 139.009 40.8672 138.23 42.9492C137.452 45.0143 137.062 47.4941 137.062 50.3887ZM184.162 31.8789C188.952 31.8789 192.448 32.8607 194.648 34.8242C196.849 36.7878 197.949 39.5384 197.949 43.0762C197.949 44.6842 197.695 46.2161 197.188 47.6719C196.697 49.1107 195.884 50.3887 194.75 51.5059C193.616 52.6061 192.118 53.4779 190.256 54.1211C188.411 54.7643 186.134 55.0859 183.426 55.0859H179.465V69H173.371V31.8789H184.162ZM183.756 36.9316H179.465V50.0078H182.791C184.704 50.0078 186.329 49.7878 187.666 49.3477C189.003 48.8906 190.019 48.1712 190.713 47.1895C191.407 46.2077 191.754 44.9128 191.754 43.3047C191.754 41.1549 191.102 39.5553 189.799 38.5059C188.512 37.4564 186.498 36.9316 183.756 36.9316ZM226.387 69H205.363V31.8789H226.387V37.0078H211.457V47.0879H225.447V52.1914H211.457V63.8457H226.387V69Z" fill="#1B110A"/>
<path d="M88.688 92.416C88.688 91.328 88.9333 90.352 89.424 89.488C89.9147 88.6133 90.5813 87.9307 91.424 87.44C92.2773 86.9493 93.2213 86.704 94.256 86.704C95.472 86.704 96.5333 86.9973 97.44 87.584C98.3467 88.1707 99.008 89.0027 99.424 90.08H97.68C97.3707 89.408 96.9227 88.8907 96.336 88.528C95.76 88.1653 95.0667 87.984 94.256 87.984C93.4773 87.984 92.7787 88.1653 92.16 88.528C91.5413 88.8907 91.056 89.408 90.704 90.08C90.352 90.7413 90.176 91.52 90.176 92.416C90.176 93.3013 90.352 94.08 90.704 94.752C91.056 95.4133 91.5413 95.9253 92.16 96.288C92.7787 96.6507 93.4773 96.832 94.256 96.832C95.0667 96.832 95.76 96.656 96.336 96.304C96.9227 95.9413 97.3707 95.424 97.68 94.752H99.424C99.008 95.8187 98.3467 96.6453 97.44 97.232C96.5333 97.808 95.472 98.096 94.256 98.096C93.2213 98.096 92.2773 97.856 91.424 97.376C90.5813 96.8853 89.9147 96.208 89.424 95.344C88.9333 94.48 88.688 93.504 88.688 92.416ZM101.047 93.584C101.047 92.688 101.229 91.904 101.591 91.232C101.954 90.5493 102.45 90.0213 103.079 89.648C103.719 89.2747 104.429 89.088 105.207 89.088C105.975 89.088 106.642 89.2533 107.207 89.584C107.773 89.9147 108.194 90.3307 108.471 90.832V89.232H109.943V98H108.471V96.368C108.183 96.88 107.751 97.3067 107.175 97.648C106.61 97.9787 105.949 98.144 105.191 98.144C104.413 98.144 103.709 97.952 103.079 97.568C102.45 97.184 101.954 96.6453 101.591 95.952C101.229 95.2587 101.047 94.4693 101.047 93.584ZM108.471 93.6C108.471 92.9387 108.338 92.3627 108.071 91.872C107.805 91.3813 107.442 91.008 106.983 90.752C106.535 90.4853 106.039 90.352 105.495 90.352C104.951 90.352 104.455 90.48 104.007 90.736C103.559 90.992 103.202 91.3653 102.935 91.856C102.669 92.3467 102.535 92.9227 102.535 93.584C102.535 94.256 102.669 94.8427 102.935 95.344C103.202 95.8347 103.559 96.2133 104.007 96.48C104.455 96.736 104.951 96.864 105.495 96.864C106.039 96.864 106.535 96.736 106.983 96.48C107.442 96.2133 107.805 95.8347 108.071 95.344C108.338 94.8427 108.471 94.2613 108.471 93.6ZM113.86 86.16V98H112.404V86.16H113.86ZM126.885 89.072C127.568 89.072 128.176 89.216 128.709 89.504C129.243 89.7813 129.664 90.2027 129.973 90.768C130.283 91.3333 130.437 92.0213 130.437 92.832V98H128.997V93.04C128.997 92.1653 128.779 91.4987 128.341 91.04C127.915 90.5707 127.333 90.336 126.597 90.336C125.84 90.336 125.237 90.5813 124.789 91.072C124.341 91.552 124.117 92.2507 124.117 93.168V98H122.677V93.04C122.677 92.1653 122.459 91.4987 122.021 91.04C121.595 90.5707 121.013 90.336 120.277 90.336C119.52 90.336 118.917 90.5813 118.469 91.072C118.021 91.552 117.797 92.2507 117.797 93.168V98H116.341V89.232H117.797V90.496C118.085 90.0373 118.469 89.6853 118.949 89.44C119.44 89.1947 119.979 89.072 120.565 89.072C121.301 89.072 121.952 89.2373 122.517 89.568C123.083 89.8987 123.504 90.384 123.781 91.024C124.027 90.4053 124.432 89.9253 124.997 89.584C125.563 89.2427 126.192 89.072 126.885 89.072ZM138.915 99.696H137.459V85.28H138.915V99.696ZM151.885 98L149.229 93.44H147.469V98H146.013V86.848H149.613C150.456 86.848 151.165 86.992 151.741 87.28C152.328 87.568 152.765 87.9573 153.053 88.448C153.341 88.9387 153.485 89.4987 153.485 90.128C153.485 90.896 153.261 91.5733 152.813 92.16C152.376 92.7467 151.715 93.136 150.829 93.328L153.629 98H151.885ZM147.469 92.272H149.613C150.403 92.272 150.995 92.08 151.389 91.696C151.784 91.3013 151.981 90.7787 151.981 90.128C151.981 89.4667 151.784 88.9547 151.389 88.592C151.005 88.2293 150.413 88.048 149.613 88.048H147.469V92.272ZM163.748 93.28C163.748 93.5573 163.732 93.8507 163.7 94.16H156.692C156.745 95.024 157.038 95.7013 157.572 96.192C158.116 96.672 158.772 96.912 159.54 96.912C160.169 96.912 160.692 96.768 161.108 96.48C161.534 96.1813 161.833 95.7867 162.004 95.296H163.572C163.337 96.1387 162.868 96.8267 162.164 97.36C161.46 97.8827 160.585 98.144 159.54 98.144C158.708 98.144 157.961 97.9573 157.3 97.584C156.649 97.2107 156.137 96.6827 155.764 96C155.39 95.3067 155.204 94.5067 155.204 93.6C155.204 92.6933 155.385 91.8987 155.748 91.216C156.11 90.5333 156.617 90.0107 157.268 89.648C157.929 89.2747 158.686 89.088 159.54 89.088C160.372 89.088 161.108 89.2693 161.748 89.632C162.388 89.9947 162.878 90.496 163.22 91.136C163.572 91.7653 163.748 92.48 163.748 93.28ZM162.244 92.976C162.244 92.4213 162.121 91.9467 161.876 91.552C161.63 91.1467 161.294 90.8427 160.868 90.64C160.452 90.4267 159.988 90.32 159.476 90.32C158.74 90.32 158.11 90.5547 157.588 91.024C157.076 91.4933 156.782 92.144 156.708 92.976H162.244ZM167.126 86.16V98H165.67V86.16H167.126ZM169.063 93.584C169.063 92.688 169.244 91.904 169.607 91.232C169.97 90.5493 170.466 90.0213 171.095 89.648C171.735 89.2747 172.444 89.088 173.223 89.088C173.991 89.088 174.658 89.2533 175.223 89.584C175.788 89.9147 176.21 90.3307 176.487 90.832V89.232H177.959V98H176.487V96.368C176.199 96.88 175.767 97.3067 175.191 97.648C174.626 97.9787 173.964 98.144 173.207 98.144C172.428 98.144 171.724 97.952 171.095 97.568C170.466 97.184 169.97 96.6453 169.607 95.952C169.244 95.2587 169.063 94.4693 169.063 93.584ZM176.487 93.6C176.487 92.9387 176.354 92.3627 176.087 91.872C175.82 91.3813 175.458 91.008 174.999 90.752C174.551 90.4853 174.055 90.352 173.511 90.352C172.967 90.352 172.471 90.48 172.023 90.736C171.575 90.992 171.218 91.3653 170.951 91.856C170.684 92.3467 170.551 92.9227 170.551 93.584C170.551 94.256 170.684 94.8427 170.951 95.344C171.218 95.8347 171.575 96.2133 172.023 96.48C172.471 96.736 172.967 96.864 173.511 96.864C174.055 96.864 174.551 96.736 174.999 96.48C175.458 96.2133 175.82 95.8347 176.087 95.344C176.354 94.8427 176.487 94.2613 176.487 93.6ZM184.996 98L182.916 94.736L180.916 98H179.396L182.228 93.648L179.396 89.232H181.044L183.124 92.48L185.108 89.232H186.628L183.812 93.568L186.644 98H184.996ZM194.165 99.696H192.709V85.28H194.165V99.696ZM209.855 86.848V98H208.399V92.944H202.719V98H201.263V86.848H202.719V91.744H208.399V86.848H209.855ZM220.341 93.28C220.341 93.5573 220.325 93.8507 220.293 94.16H213.285C213.339 95.024 213.632 95.7013 214.165 96.192C214.709 96.672 215.365 96.912 216.133 96.912C216.763 96.912 217.285 96.768 217.701 96.48C218.128 96.1813 218.427 95.7867 218.597 95.296H220.165C219.931 96.1387 219.461 96.8267 218.757 97.36C218.053 97.8827 217.179 98.144 216.133 98.144C215.301 98.144 214.555 97.9573 213.893 97.584C213.243 97.2107 212.731 96.6827 212.357 96C211.984 95.3067 211.797 94.5067 211.797 93.6C211.797 92.6933 211.979 91.8987 212.341 91.216C212.704 90.5333 213.211 90.0107 213.861 89.648C214.523 89.2747 215.28 89.088 216.133 89.088C216.965 89.088 217.701 89.2693 218.341 89.632C218.981 89.9947 219.472 90.496 219.813 91.136C220.165 91.7653 220.341 92.48 220.341 93.28ZM218.837 92.976C218.837 92.4213 218.715 91.9467 218.469 91.552C218.224 91.1467 217.888 90.8427 217.461 90.64C217.045 90.4267 216.581 90.32 216.069 90.32C215.333 90.32 214.704 90.5547 214.181 91.024C213.669 91.4933 213.376 92.144 213.301 92.976H218.837ZM223.719 86.16V98H222.263V86.16H223.719ZM227.657 90.848C227.945 90.3467 228.371 89.9307 228.937 89.6C229.513 89.2587 230.179 89.088 230.937 89.088C231.715 89.088 232.419 89.2747 233.049 89.648C233.689 90.0213 234.19 90.5493 234.553 91.232C234.915 91.904 235.097 92.688 235.097 93.584C235.097 94.4693 234.915 95.2587 234.553 95.952C234.19 96.6453 233.689 97.184 233.049 97.568C232.419 97.952 231.715 98.144 230.937 98.144C230.19 98.144 229.529 97.9787 228.953 97.648C228.387 97.3067 227.955 96.8853 227.657 96.384V102.16H226.201V89.232H227.657V90.848ZM233.609 93.584C233.609 92.9227 233.475 92.3467 233.209 91.856C232.942 91.3653 232.579 90.992 232.121 90.736C231.673 90.48 231.177 90.352 230.633 90.352C230.099 90.352 229.603 90.4853 229.145 90.752C228.697 91.008 228.334 91.3867 228.057 91.888C227.79 92.3787 227.657 92.9493 227.657 93.6C227.657 94.2613 227.79 94.8427 228.057 95.344C228.334 95.8347 228.697 96.2133 229.145 96.48C229.603 96.736 230.099 96.864 230.633 96.864C231.177 96.864 231.673 96.736 232.121 96.48C232.579 96.2133 232.942 95.8347 233.209 95.344C233.475 94.8427 233.609 94.256 233.609 93.584Z" fill="#5E5E5E"/>
</svg>
