<svg width="163" height="387" viewBox="0 0 163 387" fill="none" xmlns="http://www.w3.org/2000/svg">
<path d="M15.1701 251.125C18.9487 239.706 31.3639 239.172 37.0992 240.332L38.1113 243.304L39.7982 245.393L41.1477 246.785L41.8224 247.482L43.8466 248.874L46.2082 250.963L50.9314 254.096L53.293 255.489L54.9799 256.185L56.3294 256.881L57.3415 257.229L58.3536 257.578L64.0889 258.274L67.0084 258.436H69.1494V259.666L70.8363 260.363L80.62 260.873C83.5889 261.43 82.9816 270.852 82.6443 274.798C52.4159 281.482 31.3639 276.655 24.6165 273.406C19.8933 270.736 11.3916 262.544 15.1701 251.125Z" fill="white" stroke="black"/>
<path d="M8.08625 111.87C8.35614 95.4375 18.7697 95.9713 23.9427 98.2922C23.9427 91.6776 31.3649 72.53 71.1746 72.1819C103.022 71.9034 119.981 59.765 124.479 53.7306C119.891 63.1999 137.187 87.1518 146.408 97.9441C152.031 96.5515 163.007 97.2478 161.927 111.173C160.848 125.099 149.107 128.348 143.372 128.232C140.673 141.113 125.356 167.363 85.6816 169.312C46.0068 171.262 30.0154 142.042 26.979 127.188C20.569 128.928 7.81635 128.302 8.08625 111.87Z" fill="#EEC093" stroke="black"/>
<path d="M47.5568 85.7592C39.19 88.2658 34.8492 95.1589 33.7246 98.2922C43.9807 86.0377 56.8907 89.2406 62.0637 92.3738C56.9357 85.9681 52.28 84.7148 47.5568 85.7592Z" fill="#1B110A" stroke="#312B24"/>
<path d="M120.092 86.0873C128.458 88.5939 132.799 95.487 133.924 98.6203C123.668 86.3658 110.758 89.5687 105.585 92.7019C110.713 86.2962 115.368 85.0429 120.092 86.0873Z" fill="#1B110A" stroke="#312B24"/>
<path d="M46.2088 95.159C42.1604 95.9945 39.7988 100.149 39.124 102.122C42.9026 96.83 51.4943 95.9713 55.3178 96.2034C53.9683 95.5071 50.2573 94.3235 46.2088 95.159Z" fill="#E5C5A2"/>
<path d="M122.79 95.0981C126.839 95.9336 129.2 100.088 129.875 102.061C126.096 96.7692 117.505 95.9104 113.681 96.1425C115.031 95.4462 118.742 94.2626 122.79 95.0981Z" fill="#E5C5A2"/>
<path d="M39.7988 111.521C43.1725 117.208 52.6189 125.308 63.4148 112.218" stroke="#372414" stroke-width="3"/>
<path d="M128.527 110.825C125.154 116.511 115.707 124.611 104.911 111.521" stroke="#372414" stroke-width="3"/>
<path d="M80.9567 120.225V130.321C77.6954 129.392 72.7248 129.764 78.9325 138.676" stroke="black" stroke-width="2"/>
<path d="M73.1982 147.38C76.9093 153.646 86.7605 162.28 96.4768 146.683" stroke="black" stroke-width="2"/>
<path d="M16.5195 110.084C17.4192 107.879 20.1631 105.071 23.9417 111.477" stroke="black"/>
<path d="M17.1945 109.084C14.4956 116.604 21.6928 119.877 25.6288 120.573L24.2794 111.521C21.0406 106.23 18.2067 107.692 17.1945 109.084Z" fill="#F5CBA1"/>
<path d="M153.829 109.388C152.929 107.183 150.185 104.375 146.407 110.78" stroke="black"/>
<path d="M153.154 108.832C155.853 116.352 148.656 119.624 144.72 120.321L146.069 111.269C149.308 105.977 152.142 107.439 153.154 108.832Z" fill="#F5CBA1"/>
<path d="M42.1592 203.778C43.2388 189.574 64.763 174.953 74.8841 169.499C73.2648 177.854 76.3461 183.586 78.5952 185.327L83.6558 179.943L88.7163 185.327C93.3046 183.656 95.1264 174.186 92.09 169.312C102.549 169.312 117.955 192.405 124.14 203.778L112.42 208.997C113.041 210.322 113.687 211.666 114.357 213.016C114.886 215.216 115.557 217.783 116.043 219.979C117.243 225.395 121.441 230.957 119.08 236.341C114.172 240.817 109.805 245.574 104.91 249.222L100.862 249.919L97.8254 248.526L93.1022 246.972L85.68 241.215L83.3184 240.519L79.6073 241.215L74.5468 245.834L68.4741 249.919L62.0641 249.222L54.6419 242.956L47.8945 235.645C45.1827 231.125 51.4994 211.991 57.0006 196.997L52.6177 208.652L42.1592 203.778Z" fill="white"/>
<path d="M74.8841 169.499C64.763 174.953 43.2388 189.574 42.1592 203.778L52.6177 208.652L61.3893 185.327C55.9914 199.484 44.3858 229.796 47.8945 235.645L54.6419 242.956L62.0641 249.222L68.4741 249.919L74.5468 245.834L79.6073 241.215L83.3184 240.519L85.68 241.215L93.1022 246.972L97.8254 248.526L100.862 249.919L104.91 249.222C109.805 245.574 114.172 240.817 119.08 236.341C121.441 230.957 117.243 225.395 116.043 219.979C115.557 217.783 114.886 215.216 114.357 213.016C107.793 199.787 103.54 187.254 102.886 185.327L111.995 209.186L124.14 203.778C117.955 192.405 102.549 169.312 92.0901 169.312C95.1264 174.186 93.3046 183.656 88.7163 185.327L83.6558 179.943L78.5952 185.327C76.3461 183.586 73.2648 177.854 74.8841 169.499Z" stroke="black"/>
<path d="M39.1236 244.162C33.1859 237.756 38.6736 214.408 43.1719 204.312L52.9554 208.142C47.0177 226.524 48.4573 234.207 49.5819 235.135C49.2445 236.179 59.0284 244.348 63.0769 247.482C67.1253 250.615 74.2101 245.206 77.9212 241.377C80.8901 238.313 82.9818 239.172 83.6565 239.984C83.769 240.797 83.3191 243.117 80.6202 245.903C77.9212 248.688 79.7205 251.009 80.9575 251.821C83.4316 252.865 86.4229 255.442 78.5959 257.391C70.7689 259.341 61.1651 257.971 57.3416 257.043C53.743 255.418 45.0613 250.568 39.1236 244.162Z" fill="#EEC093" stroke="black"/>
<path d="M155.853 254.711C154.773 240.507 137.635 238.082 129.538 239.126L128.526 242.26L127.514 243.652L126.502 244.697L125.49 245.741L124.14 246.785L122.116 248.526L119.08 250.615C122.048 251.172 119.867 255.594 120.092 256.987C121.711 262 120.879 263.148 118.742 264.54L82.9809 269.762L82.6436 276.377C88.8512 277.213 121.891 276.528 136.623 275.6C143.483 274.555 156.933 268.915 155.853 254.711Z" fill="white" stroke="black"/>
<path d="M109.636 256.533L80.6211 261.059C83.3896 261.059 82.876 271.387 82.6453 274.288L123.534 264.54C126.856 264.262 124.457 263.032 123.534 262.452L125.155 261.755C126.816 260.92 125.149 260.363 123.88 260.015C124.434 260.015 125.495 259.318 125.956 258.97C127.506 257.412 125.473 257.084 123.534 257.134C128.866 254.793 124.593 254.677 122.456 254.793L123.534 253.738C126.504 250.267 122.728 250.025 119.757 250.953L109.636 256.533Z" fill="#EEC093"/>
<path d="M122.15 257.23C124.226 256.998 127.894 257.021 125.956 258.97C125.495 259.318 124.434 260.015 123.88 260.015C125.149 260.363 126.816 260.92 125.155 261.755L123.534 262.452C124.457 263.032 126.856 264.262 123.534 264.54L82.6453 274.288C82.876 271.387 83.3896 261.059 80.6211 261.059L109.636 256.533L119.757 250.953C122.728 250.025 126.504 250.267 123.534 253.738L122.456 254.793C124.593 254.677 128.866 254.793 123.534 257.134" stroke="black"/>
<path d="M12.4706 80.189C11.6609 87.9873 13.7076 94.8108 14.8321 97.2478C16.9913 95.8552 21.3547 96.8996 23.2665 97.5959L23.6038 96.2034L24.616 92.3738L26.3028 88.8925L29.6765 84.7148L31.026 83.3223L36.7613 79.1446L42.4966 76.3595L48.5693 74.2707L55.6541 72.8781L62.0641 72.1818L66.7873 71.8337H75.2216C103.831 70.1626 120.204 59.3007 124.815 54.0787C119.147 60.7629 136.848 85.8753 146.407 97.5959H151.805C155.741 96.8996 162.736 89.3798 159.227 64.8709C155.718 40.362 146.294 33.3064 142.021 32.8422C137.635 25.8795 133.924 4.64307 82.9811 1.16169C42.2267 -1.62341 20.1177 32.262 14.1575 49.5529C13.8876 56.5156 5.27336 63.1302 1 65.5672C1 75.8721 8.64703 79.6088 12.4706 80.189Z" fill="#1B110A" stroke="black"/>
<path d="M1 65.9153C3.92388 70.5572 15.3045 77.0557 37.436 65.9153C59.5676 54.7749 84.443 58.0242 94.1143 61.0414" stroke="#342F2C" stroke-width="2"/>
<path d="M124.479 48.1603C122.68 50.9454 115.505 55.889 101.2 53.3824C83.3196 50.2492 86.0186 47.4641 65.7764 50.9454" stroke="#342F2C" stroke-width="2"/>
<path d="M126.502 38.4125C124.141 35.6274 116.719 30.6142 105.923 32.8423" stroke="#342F2C" stroke-width="2"/>
<path d="M105.923 10.9096C110.871 11.3738 122.791 15.9228 130.888 30.4053" stroke="#342F2C" stroke-width="2"/>
<path d="M136.624 41.8938C141.797 43.7505 152.076 51.6417 151.806 68.3523" stroke="#342F2C" stroke-width="2"/>
<path d="M152.143 80.5372C152.143 84.4828 151.198 93.2791 147.42 96.8997" stroke="#342F2C" stroke-width="2"/>
<path d="M141.347 33.1904C139.66 34.2348 135.544 37.5073 132.575 42.242" stroke="#342F2C" stroke-width="2"/>
<path d="M39.7988 25.1833C44.6345 18.5686 60.311 5.82679 84.3318 7.77636C75.3352 8.93682 53.8335 14.0428 39.7988 25.1833Z" fill="#646464"/>
<path d="M27.316 41.1976C27.2035 39.2248 28.0582 34.7919 32.3766 32.8423C31.9267 34.9311 30.2848 39.5265 27.316 41.1976Z" fill="#646464"/>
<path d="M127.472 243.791C133.473 237.389 126.888 214.403 122.342 204.312L112.113 208.997C116.205 227.786 117.243 231.961 117.243 234.397C117.584 235.44 108.037 244.835 103.946 247.966C99.854 251.098 92.0118 244.835 88.2611 241.007C85.2606 237.946 83.1466 238.804 82.4646 239.616C82.351 240.428 82.8056 242.747 85.5334 245.531C88.2611 248.314 87.7037 248.178 85.6794 250.267C81.2936 255.141 62.2636 258.293 70.1741 260.241C78.0845 262.19 104.855 257.503 108.719 256.576C112.356 254.952 121.471 250.193 127.472 243.791Z" fill="#EEC093" stroke="black"/>
<path d="M23.9414 98.4786L24.6161 113.797L25.9656 122.152L26.9777 127.374" stroke="black"/>
<path d="M146.744 98.1305C145.957 108.11 144.113 128.279 143.033 129.115" stroke="black"/>
<path d="M77.9206 169.847L75.2217 169.499L83.6559 179.595L91.7528 169.151L89.3912 169.499L86.0175 169.847H83.6559H82.3065H80.6196H78.9328H77.9206Z" fill="#E8C3A1"/>
<path d="M78.5964 184.817C74.0082 180.918 74.4355 172.98 75.2227 169.499L83.657 179.595L91.7539 169.151C95.5324 178.341 91.3041 183.424 88.7176 184.817L83.657 179.595L78.5964 184.817Z" fill="white"/>
<path d="M83.657 179.595L78.5964 184.817C74.0082 180.918 74.4355 172.98 75.2227 169.499L83.657 179.595ZM83.657 179.595L88.7176 184.817C91.3041 183.424 95.5324 178.341 91.7539 169.151L83.657 179.595Z" stroke="black"/>
<path d="M83.3184 179.943V196.305H86.0173" stroke="#332B24" stroke-width="2"/>
<path d="M45.1162 347.153H39.0479V330.395H21.9346V347.153H15.8408V310.032H21.9346V325.215H39.0479V310.032H45.1162V347.153ZM87.8994 328.542C87.8994 331.402 87.5355 334.009 86.8076 336.362C86.0967 338.698 85.0218 340.712 83.583 342.405C82.1442 344.081 80.3415 345.376 78.1748 346.29C76.0081 347.204 73.4691 347.661 70.5576 347.661C67.5954 347.661 65.0225 347.204 62.8389 346.29C60.6722 345.376 58.8695 344.072 57.4307 342.38C56.0088 340.687 54.9424 338.664 54.2314 336.311C53.5205 333.958 53.165 331.352 53.165 328.491C53.165 324.665 53.7913 321.331 55.0439 318.487C56.3135 315.626 58.2347 313.409 60.8076 311.835C63.3975 310.243 66.6644 309.448 70.6084 309.448C74.4678 309.448 77.6755 310.235 80.2314 311.809C82.7874 313.383 84.7002 315.601 85.9697 318.462C87.2562 321.305 87.8994 324.665 87.8994 328.542ZM59.5635 328.542C59.5635 331.402 59.9528 333.882 60.7314 335.981C61.5101 338.063 62.7035 339.671 64.3115 340.805C65.9365 341.922 68.0186 342.481 70.5576 342.481C73.1136 342.481 75.1956 341.922 76.8037 340.805C78.4118 339.671 79.5967 338.063 80.3584 335.981C81.1201 333.882 81.501 331.402 81.501 328.542C81.501 324.191 80.6292 320.789 78.8857 318.335C77.1592 315.863 74.4001 314.628 70.6084 314.628C68.0693 314.628 65.9788 315.186 64.3369 316.303C62.7119 317.421 61.5101 319.02 60.7314 321.102C59.9528 323.167 59.5635 325.647 59.5635 328.542ZM106.663 310.032C111.453 310.032 114.949 311.014 117.149 312.977C119.35 314.941 120.45 317.691 120.45 321.229C120.45 322.837 120.196 324.369 119.688 325.825C119.198 327.264 118.385 328.542 117.251 329.659C116.117 330.759 114.619 331.631 112.757 332.274C110.912 332.917 108.635 333.239 105.927 333.239H101.966V347.153H95.8721V310.032H106.663ZM106.257 315.085H101.966V328.161H105.292C107.205 328.161 108.83 327.941 110.167 327.501C111.504 327.044 112.52 326.324 113.214 325.342C113.908 324.361 114.255 323.066 114.255 321.458C114.255 319.308 113.603 317.708 112.3 316.659C111.013 315.609 108.999 315.085 106.257 315.085ZM148.888 347.153H127.864V310.032H148.888V315.161H133.958V325.241H147.948V330.344H133.958V341.999H148.888V347.153Z" fill="#1B110A"/>
<path d="M8.18898 374.569C8.18898 373.481 8.43431 372.505 8.92498 371.641C9.41564 370.766 10.0823 370.084 10.925 369.593C11.7783 369.102 12.7223 368.857 13.757 368.857C14.973 368.857 16.0343 369.15 16.941 369.737C17.8476 370.324 18.509 371.156 18.925 372.233H17.181C16.8716 371.561 16.4236 371.044 15.837 370.681C15.261 370.318 14.5676 370.137 13.757 370.137C12.9783 370.137 12.2796 370.318 11.661 370.681C11.0423 371.044 10.557 371.561 10.205 372.233C9.85298 372.894 9.67698 373.673 9.67698 374.569C9.67698 375.454 9.85298 376.233 10.205 376.905C10.557 377.566 11.0423 378.078 11.661 378.441C12.2796 378.804 12.9783 378.985 13.757 378.985C14.5676 378.985 15.261 378.809 15.837 378.457C16.4236 378.094 16.8716 377.577 17.181 376.905H18.925C18.509 377.972 17.8476 378.798 16.941 379.385C16.0343 379.961 14.973 380.249 13.757 380.249C12.7223 380.249 11.7783 380.009 10.925 379.529C10.0823 379.038 9.41564 378.361 8.92498 377.497C8.43431 376.633 8.18898 375.657 8.18898 374.569ZM20.5484 375.737C20.5484 374.841 20.7297 374.057 21.0924 373.385C21.455 372.702 21.951 372.174 22.5804 371.801C23.2204 371.428 23.9297 371.241 24.7084 371.241C25.4764 371.241 26.143 371.406 26.7084 371.737C27.2737 372.068 27.695 372.484 27.9724 372.985V371.385H29.4444V380.153H27.9724V378.521C27.6844 379.033 27.2524 379.46 26.6764 379.801C26.111 380.132 25.4497 380.297 24.6924 380.297C23.9137 380.297 23.2097 380.105 22.5804 379.721C21.951 379.337 21.455 378.798 21.0924 378.105C20.7297 377.412 20.5484 376.622 20.5484 375.737ZM27.9724 375.753C27.9724 375.092 27.839 374.516 27.5724 374.025C27.3057 373.534 26.943 373.161 26.4844 372.905C26.0364 372.638 25.5404 372.505 24.9964 372.505C24.4524 372.505 23.9564 372.633 23.5084 372.889C23.0604 373.145 22.703 373.518 22.4364 374.009C22.1697 374.5 22.0364 375.076 22.0364 375.737C22.0364 376.409 22.1697 376.996 22.4364 377.497C22.703 377.988 23.0604 378.366 23.5084 378.633C23.9564 378.889 24.4524 379.017 24.9964 379.017C25.5404 379.017 26.0364 378.889 26.4844 378.633C26.943 378.366 27.3057 377.988 27.5724 377.497C27.839 376.996 27.9724 376.414 27.9724 375.753ZM33.3609 368.313V380.153H31.9049V368.313H33.3609ZM46.3864 371.225C47.069 371.225 47.677 371.369 48.2104 371.657C48.7437 371.934 49.165 372.356 49.4744 372.921C49.7837 373.486 49.9384 374.174 49.9384 374.985V380.153H48.4984V375.193C48.4984 374.318 48.2797 373.652 47.8424 373.193C47.4157 372.724 46.8344 372.489 46.0984 372.489C45.341 372.489 44.7384 372.734 44.2904 373.225C43.8424 373.705 43.6184 374.404 43.6184 375.321V380.153H42.1784V375.193C42.1784 374.318 41.9597 373.652 41.5224 373.193C41.0957 372.724 40.5144 372.489 39.7784 372.489C39.021 372.489 38.4184 372.734 37.9704 373.225C37.5224 373.705 37.2984 374.404 37.2984 375.321V380.153H35.8424V371.385H37.2984V372.649C37.5864 372.19 37.9704 371.838 38.4504 371.593C38.941 371.348 39.4797 371.225 40.0664 371.225C40.8024 371.225 41.453 371.39 42.0184 371.721C42.5837 372.052 43.005 372.537 43.2824 373.177C43.5277 372.558 43.933 372.078 44.4984 371.737C45.0637 371.396 45.693 371.225 46.3864 371.225ZM58.4164 381.849H56.9604V367.433H58.4164V381.849ZM71.3862 380.153L68.7302 375.593H66.9702V380.153H65.5142V369.001H69.1142C69.9569 369.001 70.6662 369.145 71.2422 369.433C71.8289 369.721 72.2662 370.11 72.5542 370.601C72.8422 371.092 72.9862 371.652 72.9862 372.281C72.9862 373.049 72.7622 373.726 72.3142 374.313C71.8769 374.9 71.2156 375.289 70.3302 375.481L73.1302 380.153H71.3862ZM66.9702 374.425H69.1142C69.9036 374.425 70.4956 374.233 70.8902 373.849C71.2849 373.454 71.4822 372.932 71.4822 372.281C71.4822 371.62 71.2849 371.108 70.8902 370.745C70.5062 370.382 69.9142 370.201 69.1142 370.201H66.9702V374.425ZM83.2486 375.433C83.2486 375.71 83.2326 376.004 83.2006 376.313H76.1926C76.2459 377.177 76.5393 377.854 77.0726 378.345C77.6166 378.825 78.2726 379.065 79.0406 379.065C79.6699 379.065 80.1926 378.921 80.6086 378.633C81.0353 378.334 81.3339 377.94 81.5046 377.449H83.0726C82.8379 378.292 82.3686 378.98 81.6646 379.513C80.9606 380.036 80.0859 380.297 79.0406 380.297C78.2086 380.297 77.4619 380.11 76.8006 379.737C76.1499 379.364 75.6379 378.836 75.2646 378.153C74.8913 377.46 74.7046 376.66 74.7046 375.753C74.7046 374.846 74.8859 374.052 75.2486 373.369C75.6113 372.686 76.1179 372.164 76.7686 371.801C77.4299 371.428 78.1873 371.241 79.0406 371.241C79.8726 371.241 80.6086 371.422 81.2486 371.785C81.8886 372.148 82.3793 372.649 82.7206 373.289C83.0726 373.918 83.2486 374.633 83.2486 375.433ZM81.7446 375.129C81.7446 374.574 81.6219 374.1 81.3766 373.705C81.1313 373.3 80.7953 372.996 80.3686 372.793C79.9526 372.58 79.4886 372.473 78.9766 372.473C78.2406 372.473 77.6113 372.708 77.0886 373.177C76.5766 373.646 76.2833 374.297 76.2086 375.129H81.7446ZM86.6265 368.313V380.153H85.1705V368.313H86.6265ZM88.564 375.737C88.564 374.841 88.7453 374.057 89.108 373.385C89.4706 372.702 89.9666 372.174 90.596 371.801C91.236 371.428 91.9453 371.241 92.724 371.241C93.492 371.241 94.1586 371.406 94.724 371.737C95.2893 372.068 95.7106 372.484 95.988 372.985V371.385H97.46V380.153H95.988V378.521C95.7 379.033 95.268 379.46 94.692 379.801C94.1266 380.132 93.4653 380.297 92.708 380.297C91.9293 380.297 91.2253 380.105 90.596 379.721C89.9666 379.337 89.4706 378.798 89.108 378.105C88.7453 377.412 88.564 376.622 88.564 375.737ZM95.988 375.753C95.988 375.092 95.8546 374.516 95.588 374.025C95.3213 373.534 94.9586 373.161 94.5 372.905C94.052 372.638 93.556 372.505 93.012 372.505C92.468 372.505 91.972 372.633 91.524 372.889C91.076 373.145 90.7186 373.518 90.452 374.009C90.1853 374.5 90.052 375.076 90.052 375.737C90.052 376.409 90.1853 376.996 90.452 377.497C90.7186 377.988 91.076 378.366 91.524 378.633C91.972 378.889 92.468 379.017 93.012 379.017C93.556 379.017 94.052 378.889 94.5 378.633C94.9586 378.366 95.3213 377.988 95.588 377.497C95.8546 376.996 95.988 376.414 95.988 375.753ZM104.496 380.153L102.416 376.889L100.416 380.153H98.8965L101.728 375.801L98.8965 371.385H100.544L102.624 374.633L104.608 371.385H106.128L103.312 375.721L106.144 380.153H104.496ZM113.666 381.849H112.21V367.433H113.666V381.849ZM129.356 369.001V380.153H127.9V375.097H122.22V380.153H120.764V369.001H122.22V373.897H127.9V369.001H129.356ZM139.842 375.433C139.842 375.71 139.826 376.004 139.794 376.313H132.786C132.84 377.177 133.133 377.854 133.666 378.345C134.21 378.825 134.866 379.065 135.634 379.065C136.264 379.065 136.786 378.921 137.202 378.633C137.629 378.334 137.928 377.94 138.098 377.449H139.666C139.432 378.292 138.962 378.98 138.258 379.513C137.554 380.036 136.68 380.297 135.634 380.297C134.802 380.297 134.056 380.11 133.394 379.737C132.744 379.364 132.232 378.836 131.858 378.153C131.485 377.46 131.298 376.66 131.298 375.753C131.298 374.846 131.48 374.052 131.842 373.369C132.205 372.686 132.712 372.164 133.362 371.801C134.024 371.428 134.781 371.241 135.634 371.241C136.466 371.241 137.202 371.422 137.842 371.785C138.482 372.148 138.973 372.649 139.314 373.289C139.666 373.918 139.842 374.633 139.842 375.433ZM138.338 375.129C138.338 374.574 138.216 374.1 137.97 373.705C137.725 373.3 137.389 372.996 136.962 372.793C136.546 372.58 136.082 372.473 135.57 372.473C134.834 372.473 134.205 372.708 133.682 373.177C133.17 373.646 132.877 374.297 132.802 375.129H138.338ZM143.22 368.313V380.153H141.764V368.313H143.22ZM147.158 373.001C147.446 372.5 147.872 372.084 148.438 371.753C149.014 371.412 149.68 371.241 150.438 371.241C151.216 371.241 151.92 371.428 152.55 371.801C153.19 372.174 153.691 372.702 154.054 373.385C154.416 374.057 154.598 374.841 154.598 375.737C154.598 376.622 154.416 377.412 154.054 378.105C153.691 378.798 153.19 379.337 152.55 379.721C151.92 380.105 151.216 380.297 150.438 380.297C149.691 380.297 149.03 380.132 148.454 379.801C147.888 379.46 147.456 379.038 147.158 378.537V384.313H145.702V371.385H147.158V373.001ZM153.11 375.737C153.11 375.076 152.976 374.5 152.71 374.009C152.443 373.518 152.08 373.145 151.622 372.889C151.174 372.633 150.678 372.505 150.134 372.505C149.6 372.505 149.104 372.638 148.646 372.905C148.198 373.161 147.835 373.54 147.558 374.041C147.291 374.532 147.158 375.102 147.158 375.753C147.158 376.414 147.291 376.996 147.558 377.497C147.835 377.988 148.198 378.366 148.646 378.633C149.104 378.889 149.6 379.017 150.134 379.017C150.678 379.017 151.174 378.889 151.622 378.633C152.08 378.366 152.443 377.988 152.71 377.497C152.976 376.996 153.11 376.409 153.11 375.737Z" fill="#5E5E5E"/>
</svg>
