<svg width="562" height="518" viewBox="0 0 562 518" fill="none" xmlns="http://www.w3.org/2000/svg">
<path d="M300.151 60.6088C339.312 54.4118 385.066 49.9887 412.401 68.942C439.698 87.8012 448.649 130.225 471.981 171.079C495.349 212.027 533.333 251.422 535.461 291.187C537.626 331.046 504.096 371.104 461.348 387.675C418.599 404.247 366.633 397.332 324.898 408.315C283.064 419.336 251.338 448.52 220.225 451.164C189.211 453.77 158.685 430.1 120.657 409.34C82.6289 388.579 65.0376 366.046 58.5006 336C51.8648 305.992 56.4184 268.527 78.492 233.776C100.529 198.931 112.318 171.631 130.088 147.749C147.821 123.773 171.634 103.176 199.861 88.9869C228.151 74.665 260.891 66.8441 300.151 60.6088Z" fill="#BFD8FF"/>
<path d="M140.18 277L133.305 254.598H133.129C133.155 255.131 133.194 255.939 133.246 257.02C133.311 258.087 133.37 259.227 133.422 260.437C133.474 261.648 133.5 262.742 133.5 263.719V277H128.09V248.445H136.332L143.09 270.281H143.207L150.375 248.445H158.617V277H152.973V263.484C152.973 262.586 152.986 261.551 153.012 260.379C153.051 259.207 153.096 258.094 153.148 257.039C153.201 255.971 153.24 255.171 153.266 254.637H153.09L145.727 277H140.18ZM189.066 248.445V266.922C189.066 268.888 188.63 270.665 187.758 272.254C186.898 273.829 185.59 275.079 183.832 276.004C182.087 276.928 179.887 277.391 177.23 277.391C173.454 277.391 170.577 276.427 168.598 274.5C166.618 272.573 165.629 270.021 165.629 266.844V248.445H171.664V265.926C171.664 268.283 172.146 269.936 173.109 270.887C174.073 271.837 175.499 272.312 177.387 272.312C178.715 272.312 179.789 272.085 180.609 271.629C181.443 271.173 182.055 270.47 182.445 269.52C182.836 268.569 183.031 267.358 183.031 265.887V248.445H189.066ZM212.914 269.07C212.914 270.763 212.504 272.234 211.684 273.484C210.863 274.734 209.665 275.698 208.09 276.375C206.527 277.052 204.626 277.391 202.387 277.391C201.397 277.391 200.427 277.326 199.477 277.195C198.539 277.065 197.634 276.876 196.762 276.629C195.902 276.368 195.082 276.049 194.301 275.672V270.047C195.655 270.646 197.061 271.186 198.52 271.668C199.978 272.15 201.423 272.391 202.855 272.391C203.845 272.391 204.639 272.26 205.238 272C205.85 271.74 206.293 271.381 206.566 270.926C206.84 270.47 206.977 269.949 206.977 269.363C206.977 268.647 206.736 268.035 206.254 267.527C205.772 267.02 205.108 266.544 204.262 266.102C203.428 265.659 202.484 265.184 201.43 264.676C200.766 264.363 200.043 263.986 199.262 263.543C198.48 263.087 197.738 262.534 197.035 261.883C196.332 261.232 195.753 260.444 195.297 259.52C194.854 258.582 194.633 257.462 194.633 256.16C194.633 254.454 195.023 252.996 195.805 251.785C196.586 250.574 197.699 249.65 199.145 249.012C200.603 248.361 202.322 248.035 204.301 248.035C205.785 248.035 207.198 248.211 208.539 248.562C209.893 248.901 211.306 249.396 212.777 250.047L210.824 254.754C209.509 254.22 208.331 253.81 207.289 253.523C206.247 253.224 205.186 253.074 204.105 253.074C203.35 253.074 202.706 253.198 202.172 253.445C201.638 253.68 201.234 254.018 200.961 254.461C200.688 254.891 200.551 255.392 200.551 255.965C200.551 256.642 200.746 257.215 201.137 257.684C201.54 258.139 202.139 258.582 202.934 259.012C203.741 259.441 204.743 259.943 205.941 260.516C207.4 261.206 208.643 261.928 209.672 262.684C210.714 263.426 211.514 264.305 212.074 265.32C212.634 266.323 212.914 267.573 212.914 269.07ZM218.09 277V248.445H224.145V277H218.09ZM243.461 253.074C242.302 253.074 241.273 253.302 240.375 253.758C239.49 254.201 238.741 254.845 238.129 255.691C237.53 256.538 237.074 257.56 236.762 258.758C236.449 259.956 236.293 261.303 236.293 262.801C236.293 264.819 236.54 266.544 237.035 267.977C237.543 269.396 238.324 270.483 239.379 271.238C240.434 271.98 241.794 272.352 243.461 272.352C244.62 272.352 245.779 272.221 246.938 271.961C248.109 271.701 249.379 271.329 250.746 270.848V275.926C249.483 276.447 248.24 276.818 247.016 277.039C245.792 277.273 244.418 277.391 242.895 277.391C239.952 277.391 237.53 276.785 235.629 275.574C233.741 274.35 232.341 272.645 231.43 270.457C230.518 268.256 230.062 265.691 230.062 262.762C230.062 260.6 230.355 258.621 230.941 256.824C231.527 255.027 232.387 253.471 233.52 252.156C234.652 250.841 236.052 249.826 237.719 249.109C239.385 248.393 241.299 248.035 243.461 248.035C244.88 248.035 246.299 248.217 247.719 248.582C249.151 248.934 250.518 249.422 251.82 250.047L249.867 254.969C248.799 254.461 247.725 254.018 246.645 253.641C245.564 253.263 244.503 253.074 243.461 253.074ZM278.246 277H272.191V253.484H264.438V248.445H286V253.484H278.246V277ZM316.312 262.684C316.312 264.884 316.039 266.889 315.492 268.699C314.945 270.496 314.112 272.046 312.992 273.348C311.885 274.65 310.479 275.652 308.773 276.355C307.068 277.046 305.049 277.391 302.719 277.391C300.388 277.391 298.37 277.046 296.664 276.355C294.958 275.652 293.546 274.65 292.426 273.348C291.319 272.046 290.492 270.49 289.945 268.68C289.398 266.87 289.125 264.858 289.125 262.645C289.125 259.689 289.607 257.117 290.57 254.93C291.547 252.729 293.044 251.023 295.062 249.812C297.081 248.602 299.646 247.996 302.758 247.996C305.857 247.996 308.402 248.602 310.395 249.812C312.4 251.023 313.884 252.729 314.848 254.93C315.824 257.13 316.312 259.715 316.312 262.684ZM295.473 262.684C295.473 264.676 295.72 266.395 296.215 267.84C296.723 269.272 297.51 270.379 298.578 271.16C299.646 271.928 301.026 272.312 302.719 272.312C304.438 272.312 305.831 271.928 306.898 271.16C307.966 270.379 308.741 269.272 309.223 267.84C309.717 266.395 309.965 264.676 309.965 262.684C309.965 259.689 309.405 257.332 308.285 255.613C307.165 253.895 305.323 253.035 302.758 253.035C301.052 253.035 299.659 253.426 298.578 254.207C297.51 254.975 296.723 256.082 296.215 257.527C295.72 258.96 295.473 260.678 295.473 262.684ZM344.75 253.074C343.591 253.074 342.562 253.302 341.664 253.758C340.779 254.201 340.03 254.845 339.418 255.691C338.819 256.538 338.363 257.56 338.051 258.758C337.738 259.956 337.582 261.303 337.582 262.801C337.582 264.819 337.829 266.544 338.324 267.977C338.832 269.396 339.613 270.483 340.668 271.238C341.723 271.98 343.083 272.352 344.75 272.352C345.909 272.352 347.068 272.221 348.227 271.961C349.398 271.701 350.668 271.329 352.035 270.848V275.926C350.772 276.447 349.529 276.818 348.305 277.039C347.081 277.273 345.707 277.391 344.184 277.391C341.241 277.391 338.819 276.785 336.918 275.574C335.03 274.35 333.63 272.645 332.719 270.457C331.807 268.256 331.352 265.691 331.352 262.762C331.352 260.6 331.645 258.621 332.23 256.824C332.816 255.027 333.676 253.471 334.809 252.156C335.941 250.841 337.341 249.826 339.008 249.109C340.674 248.393 342.589 248.035 344.75 248.035C346.169 248.035 347.589 248.217 349.008 248.582C350.44 248.934 351.807 249.422 353.109 250.047L351.156 254.969C350.089 254.461 349.014 254.018 347.934 253.641C346.853 253.263 345.792 253.074 344.75 253.074ZM375.609 277L373.539 270.203H363.129L361.059 277H354.535L364.613 248.328H372.016L382.133 277H375.609ZM372.094 265.125L370.023 258.484C369.893 258.042 369.717 257.475 369.496 256.785C369.288 256.082 369.073 255.372 368.852 254.656C368.643 253.927 368.474 253.296 368.344 252.762C368.214 253.296 368.031 253.96 367.797 254.754C367.576 255.535 367.361 256.277 367.152 256.98C366.944 257.684 366.794 258.185 366.703 258.484L364.652 265.125H372.094ZM385.746 277V248.445H391.801V272H403.383V277H385.746ZM420.453 277L413.578 254.598H413.402C413.428 255.131 413.467 255.939 413.52 257.02C413.585 258.087 413.643 259.227 413.695 260.437C413.747 261.648 413.773 262.742 413.773 263.719V277H408.363V248.445H416.605L423.363 270.281H423.48L430.648 248.445H438.891V277H433.246V263.484C433.246 262.586 433.259 261.551 433.285 260.379C433.324 259.207 433.37 258.094 433.422 257.039C433.474 255.971 433.513 255.171 433.539 254.637H433.363L426 277H420.453ZM180.941 330.203L186.898 318.445H193.422L183.949 335.887V347H177.934V336.082L168.461 318.445H175.023L180.941 330.203ZM222.934 332.684C222.934 334.884 222.66 336.889 222.113 338.699C221.566 340.496 220.733 342.046 219.613 343.348C218.507 344.65 217.1 345.652 215.395 346.355C213.689 347.046 211.671 347.391 209.34 347.391C207.009 347.391 204.991 347.046 203.285 346.355C201.579 345.652 200.167 344.65 199.047 343.348C197.94 342.046 197.113 340.49 196.566 338.68C196.02 336.87 195.746 334.858 195.746 332.645C195.746 329.689 196.228 327.117 197.191 324.93C198.168 322.729 199.665 321.023 201.684 319.812C203.702 318.602 206.267 317.996 209.379 317.996C212.478 317.996 215.023 318.602 217.016 319.812C219.021 321.023 220.505 322.729 221.469 324.93C222.445 327.13 222.934 329.715 222.934 332.684ZM202.094 332.684C202.094 334.676 202.341 336.395 202.836 337.84C203.344 339.272 204.132 340.379 205.199 341.16C206.267 341.928 207.647 342.312 209.34 342.312C211.059 342.312 212.452 341.928 213.52 341.16C214.587 340.379 215.362 339.272 215.844 337.84C216.339 336.395 216.586 334.676 216.586 332.684C216.586 329.689 216.026 327.332 214.906 325.613C213.786 323.895 211.944 323.035 209.379 323.035C207.673 323.035 206.28 323.426 205.199 324.207C204.132 324.975 203.344 326.082 202.836 327.527C202.341 328.96 202.094 330.678 202.094 332.684ZM252.094 318.445V336.922C252.094 338.888 251.658 340.665 250.785 342.254C249.926 343.829 248.617 345.079 246.859 346.004C245.115 346.928 242.914 347.391 240.258 347.391C236.482 347.391 233.604 346.427 231.625 344.5C229.646 342.573 228.656 340.021 228.656 336.844V318.445H234.691V335.926C234.691 338.283 235.173 339.936 236.137 340.887C237.1 341.837 238.526 342.312 240.414 342.312C241.742 342.312 242.816 342.085 243.637 341.629C244.47 341.173 245.082 340.47 245.473 339.52C245.863 338.569 246.059 337.358 246.059 335.887V318.445H252.094ZM293.168 332.449C293.168 335.665 292.549 338.354 291.312 340.516C290.089 342.664 288.311 344.285 285.98 345.379C283.65 346.46 280.844 347 277.562 347H269.477V318.445H278.441C281.436 318.445 284.034 318.979 286.234 320.047C288.435 321.102 290.141 322.671 291.352 324.754C292.562 326.824 293.168 329.389 293.168 332.449ZM286.879 332.605C286.879 330.496 286.566 328.764 285.941 327.41C285.329 326.043 284.418 325.034 283.207 324.383C282.009 323.732 280.525 323.406 278.754 323.406H275.531V342H278.129C281.085 342 283.279 341.212 284.711 339.637C286.156 338.061 286.879 335.717 286.879 332.605ZM325.004 332.684C325.004 334.884 324.73 336.889 324.184 338.699C323.637 340.496 322.803 342.046 321.684 343.348C320.577 344.65 319.171 345.652 317.465 346.355C315.759 347.046 313.741 347.391 311.41 347.391C309.079 347.391 307.061 347.046 305.355 346.355C303.65 345.652 302.237 344.65 301.117 343.348C300.01 342.046 299.184 340.49 298.637 338.68C298.09 336.87 297.816 334.858 297.816 332.645C297.816 329.689 298.298 327.117 299.262 324.93C300.238 322.729 301.736 321.023 303.754 319.812C305.772 318.602 308.337 317.996 311.449 317.996C314.548 317.996 317.094 318.602 319.086 319.812C321.091 321.023 322.576 322.729 323.539 324.93C324.516 327.13 325.004 329.715 325.004 332.684ZM304.164 332.684C304.164 334.676 304.411 336.395 304.906 337.84C305.414 339.272 306.202 340.379 307.27 341.16C308.337 341.928 309.717 342.312 311.41 342.312C313.129 342.312 314.522 341.928 315.59 341.16C316.658 340.379 317.432 339.272 317.914 337.84C318.409 336.395 318.656 334.676 318.656 332.684C318.656 329.689 318.096 327.332 316.977 325.613C315.857 323.895 314.014 323.035 311.449 323.035C309.743 323.035 308.35 323.426 307.27 324.207C306.202 324.975 305.414 326.082 304.906 327.527C304.411 328.96 304.164 330.678 304.164 332.684ZM366 318.445L358.734 347H351.84L347.973 332C347.895 331.714 347.79 331.277 347.66 330.691C347.53 330.105 347.393 329.467 347.25 328.777C347.107 328.074 346.977 327.417 346.859 326.805C346.755 326.18 346.684 325.685 346.645 325.32C346.605 325.685 346.527 326.173 346.41 326.785C346.306 327.397 346.182 328.048 346.039 328.738C345.909 329.428 345.779 330.073 345.648 330.672C345.518 331.271 345.414 331.727 345.336 332.039L341.488 347H334.613L327.328 318.445H333.285L336.938 334.031C337.042 334.5 337.159 335.06 337.289 335.711C337.432 336.362 337.569 337.046 337.699 337.762C337.842 338.465 337.966 339.148 338.07 339.812C338.188 340.464 338.272 341.03 338.324 341.512C338.389 341.017 338.474 340.444 338.578 339.793C338.682 339.129 338.793 338.458 338.91 337.781C339.04 337.091 339.171 336.453 339.301 335.867C339.431 335.281 339.548 334.806 339.652 334.441L343.812 318.445H349.535L353.695 334.441C353.786 334.793 353.891 335.268 354.008 335.867C354.138 336.453 354.268 337.091 354.398 337.781C354.529 338.471 354.646 339.148 354.75 339.812C354.867 340.464 354.952 341.03 355.004 341.512C355.095 340.861 355.219 340.073 355.375 339.148C355.544 338.211 355.72 337.28 355.902 336.355C356.098 335.431 356.267 334.656 356.41 334.031L360.043 318.445H366ZM394.926 347H387.23L374.809 325.398H374.633C374.685 326.297 374.73 327.202 374.77 328.113C374.809 329.025 374.848 329.936 374.887 330.848C374.926 331.746 374.965 332.651 375.004 333.562V347H369.594V318.445H377.23L389.633 339.832H389.77C389.743 338.947 389.711 338.068 389.672 337.195C389.633 336.323 389.594 335.451 389.555 334.578C389.529 333.706 389.503 332.833 389.477 331.961V318.445H394.926V347Z" fill="#3C2A21"/>
<path d="M384.655 134.619L374.38 164.131C373.617 166.323 372.014 168.122 369.925 169.132C367.836 170.142 365.431 170.281 363.239 169.518C361.048 168.754 359.249 167.152 358.239 165.063C357.229 162.973 357.09 160.569 357.853 158.377C358.616 156.185 360.218 154.387 362.308 153.377C364.397 152.366 366.802 152.228 368.994 152.991C370.268 153.435 371.374 154.137 372.255 155.027L377.081 141.168L351.72 137.976L344.404 158.989C343.641 161.18 342.038 162.979 339.949 163.989C337.86 164.999 335.455 165.138 333.263 164.375C331.072 163.612 329.273 162.009 328.263 159.92C327.253 157.831 327.114 155.426 327.877 153.234C328.64 151.043 330.243 149.244 332.332 148.234C334.421 147.224 336.826 147.085 339.018 147.848C340.293 148.292 341.398 148.994 342.28 149.884L349.136 130.193L384.655 134.619Z" fill="#1973E8"/>
<path d="M252.662 140.23L261.264 165.163C259.592 164.841 257.814 164.899 256.089 165.494C250.866 167.296 248.095 172.986 249.897 178.208C251.699 183.431 257.388 186.202 262.611 184.4C267.834 182.599 270.605 176.909 268.803 171.686L260.65 148.053L270.103 144.792L266.842 135.338L252.662 140.23Z" fill="#1973E8"/>
<path d="M140.738 213.239C139.435 212.8 138.476 211.96 137.86 210.72C137.246 209.478 137.159 208.206 137.598 206.903L143.189 190.321C144.188 187.359 145.685 184.775 147.682 182.567C149.68 180.362 151.959 178.624 154.521 177.354C157.08 176.085 159.844 175.324 162.81 175.07C165.775 174.818 168.737 175.19 171.699 176.189C174.66 177.187 177.244 178.685 179.452 180.682C181.658 182.679 183.396 184.958 184.666 187.518C185.934 190.079 186.695 192.842 186.95 195.807C187.202 198.773 186.829 201.737 185.83 204.698L180.239 221.281C179.8 222.584 178.96 223.543 177.72 224.159C176.479 224.773 175.207 224.861 173.904 224.421L169.166 222.824C167.863 222.385 166.904 221.545 166.29 220.305C165.674 219.064 165.586 217.791 166.025 216.488L169.22 207.013C169.66 205.71 170.5 204.75 171.742 204.135C172.982 203.52 174.253 203.433 175.556 203.872L180.294 205.47L181.093 203.101C182.65 198.481 182.362 194.02 180.229 189.716C178.096 185.414 174.721 182.484 170.101 180.927C165.482 179.369 161.021 179.657 156.719 181.789C152.415 183.922 149.485 187.299 147.927 191.918L147.128 194.287L151.866 195.885C153.169 196.324 154.128 197.163 154.742 198.403C155.358 199.645 155.446 200.917 155.007 202.22L151.812 211.696C151.372 212.999 150.532 213.958 149.29 214.574C148.05 215.188 146.779 215.276 145.476 214.836L140.738 213.239Z" fill="#1973E8"/>
</svg>
